<?xml version="1.0" standalone="no"?>
<!DOCTYPE svg PUBLIC "-//W3C//DTD SVG 20010904//EN"
 "http://www.w3.org/TR/2001/REC-SVG-20010904/DTD/svg10.dtd">
<svg version="1.0" xmlns="http://www.w3.org/2000/svg"
 width="744.000000pt" height="744.000000pt" viewBox="0 0 744.000000 744.000000"
 preserveAspectRatio="xMidYMid meet">

<g transform="translate(0.000000,744.000000) scale(0.100000,-0.100000)"
fill="#000000" stroke="none">
<path d="M3575 7103 c-765 -46 -1426 -296 -2010 -759 -146 -116 -448 -421
-559 -564 -475 -614 -719 -1289 -743 -2050 -23 -744 199 -1485 627 -2092 233
-331 576 -668 902 -886 454 -303 947 -491 1488 -567 155 -22 591 -31 757 -16
452 41 861 159 1263 361 343 174 605 365 886 645 563 563 894 1239 1001 2040
21 165 25 638 5 795 -34 269 -89 511 -169 745 -366 1069 -1242 1904 -2324
2215 -368 105 -778 154 -1124 133z m565 -228 c340 -46 646 -132 946 -268 321
-146 647 -367 903 -612 517 -497 856 -1134 970 -1827 64 -390 53 -854 -30
-1233 -201 -920 -806 -1725 -1633 -2174 -747 -405 -1634 -506 -2443 -277 -542
154 -1026 439 -1428 841 -470 470 -777 1052 -904 1716 -65 342 -68 789 -6
1152 108 628 420 1240 870 1705 567 586 1304 931 2130 996 106 8 515 -4 625
-19z"/>
<path d="M2645 5124 c-517 -147 -1058 -351 -1528 -577 -166 -80 -179 -88 -193
-123 -9 -21 -13 -48 -9 -62 9 -38 59 -82 93 -82 16 0 96 32 178 71 526 251
1037 442 1559 584 148 40 185 66 185 130 0 47 -43 94 -90 100 -22 2 -94 -13
-195 -41z"/>
<path d="M4604 5160 c-33 -13 -64 -59 -64 -96 0 -45 41 -91 93 -104 518 -133
1067 -333 1592 -581 115 -54 222 -99 237 -99 14 0 40 12 57 26 39 32 49 80 26
124 -14 27 -43 45 -189 116 -468 225 -953 410 -1475 560 -231 66 -242 68 -277
54z"/>
<path d="M2145 4530 c-59 -12 -142 -47 -189 -79 -267 -187 -313 -553 -99 -791
228 -254 641 -226 828 56 142 213 115 485 -64 665 -127 127 -305 183 -476 149z
m222 -221 c68 -26 138 -92 173 -164 36 -73 35 -188 -1 -266 -33 -71 -87 -124
-158 -158 -46 -22 -70 -26 -136 -25 -97 0 -157 25 -226 94 -140 139 -110 387
58 491 87 54 192 64 290 28z"/>
<path d="M5098 4524 c-164 -39 -309 -167 -369 -323 -118 -312 85 -660 415
-711 316 -49 606 204 606 529 0 135 -53 256 -159 362 -138 138 -310 188 -493
143z m267 -226 c60 -31 114 -86 146 -148 20 -38 24 -60 24 -140 0 -87 -3 -100
-30 -149 -33 -60 -87 -111 -154 -143 -69 -34 -186 -32 -262 3 -71 33 -125 87
-158 158 -36 77 -36 192 -1 266 34 69 105 138 171 164 76 30 193 25 264 -11z"/>
<path d="M3380 2969 c-749 -54 -1341 -213 -1860 -501 -69 -38 -140 -85 -159
-105 -29 -31 -33 -40 -28 -75 6 -47 21 -67 65 -85 41 -17 56 -13 161 49 447
263 984 425 1636 495 136 14 254 18 590 18 441 0 554 -8 835 -56 545 -93 1018
-291 1299 -543 66 -59 78 -66 116 -66 77 0 125 69 96 139 -29 69 -288 259
-490 360 -377 189 -786 301 -1291 357 -172 18 -781 27 -970 13z"/>
</g>
</svg>
