<?xml version="1.0" standalone="no"?>
<!DOCTYPE svg PUBLIC "-//W3C//DTD SVG 20010904//EN"
 "http://www.w3.org/TR/2001/REC-SVG-20010904/DTD/svg10.dtd">
<svg version="1.0" xmlns="http://www.w3.org/2000/svg"
 width="761.000000pt" height="705.000000pt" viewBox="0 0 761.000000 705.000000"
 preserveAspectRatio="xMidYMid meet">

<g transform="translate(0.000000,705.000000) scale(0.100000,-0.100000)"
fill="#000000" stroke="none">
<path d="M3525 7004 c-268 -27 -404 -49 -604 -100 -1315 -330 -2332 -1420
-2571 -2754 -68 -381 -68 -852 1 -1229 105 -582 357 -1126 736 -1590 107 -130
336 -362 458 -462 779 -642 1765 -918 2748 -769 604 92 1164 338 1652 726 140
111 425 396 539 539 418 524 676 1156 747 1830 16 152 16 525 1 675 -84 804
-417 1517 -976 2089 -563 575 -1246 916 -2056 1026 -109 15 -582 28 -675 19z
m710 -232 c514 -80 957 -253 1370 -533 489 -332 900 -819 1142 -1353 329 -728
382 -1543 148 -2310 -111 -367 -307 -739 -561 -1066 -106 -137 -371 -405 -504
-512 -432 -343 -901 -563 -1425 -667 -240 -48 -335 -56 -645 -56 -289 1 -389
9 -605 51 -1143 222 -2089 1040 -2471 2137 -324 931 -207 1966 315 2801 253
403 569 727 971 994 443 295 911 465 1450 528 176 20 647 12 815 -14z"/>
<path d="M1963 5066 c-62 -28 -80 -118 -32 -162 11 -11 280 -161 597 -334 571
-313 577 -316 580 -349 4 -36 -22 -81 -67 -117 -14 -12 -242 -168 -506 -349
-264 -180 -488 -334 -497 -342 -10 -9 -22 -30 -28 -49 -15 -46 9 -96 57 -119
32 -15 39 -16 72 -2 59 24 1001 672 1064 733 81 77 112 145 112 244 -1 86 -22
138 -77 186 -38 34 -1180 660 -1218 668 -14 3 -39 -1 -57 -8z"/>
<path d="M5467 5051 c-31 -16 -298 -161 -594 -323 -593 -323 -610 -334 -639
-434 -31 -109 4 -219 103 -316 61 -59 1021 -721 1072 -739 40 -14 95 10 116
51 22 42 13 89 -23 122 -15 14 -234 166 -487 338 -502 342 -538 368 -566 414
-28 45 -24 71 14 99 17 13 283 161 590 328 433 235 562 310 573 331 31 59 9
119 -52 144 -44 18 -43 19 -107 -15z"/>
<path d="M5960 3312 c-25 -12 -47 -40 -82 -101 -114 -200 -274 -346 -554 -504
-271 -153 -642 -270 -1024 -323 -157 -21 -603 -30 -800 -15 -871 66 -1436 253
-1863 617 -55 48 -89 58 -133 39 -57 -24 -79 -81 -53 -139 7 -14 52 -58 102
-98 418 -338 952 -524 1742 -609 919 -97 1703 56 2296 449 215 143 375 308
467 480 51 96 55 138 15 181 -36 38 -70 45 -113 23z"/>
</g>
</svg>
