<?xml version="1.0" standalone="no"?>
<!DOCTYPE svg PUBLIC "-//W3C//DTD SVG 20010904//EN"
 "http://www.w3.org/TR/2001/REC-SVG-20010904/DTD/svg10.dtd">
<svg version="1.0" xmlns="http://www.w3.org/2000/svg"
 width="856.000000pt" height="856.000000pt" viewBox="0 0 856.000000 856.000000"
 preserveAspectRatio="xMidYMid meet">

<g transform="translate(0.000000,856.000000) scale(0.100000,-0.100000)"
fill="#000000" stroke="none">
<path d="M4225 7533 c-1045 -69 -2016 -617 -2621 -1479 -287 -409 -484 -883
-573 -1375 -69 -377 -69 -848 -1 -1229 178 -992 794 -1873 1674 -2389 392
-231 834 -380 1321 -447 184 -26 665 -26 850 0 424 57 775 165 1144 351 349
175 634 387 926 686 553 568 884 1279 967 2079 15 150 15 523 -1 675 -71 673
-329 1305 -747 1830 -113 142 -398 426 -539 539 -633 504 -1408 774 -2199 764
-83 -1 -173 -3 -201 -5z m654 -228 c607 -85 1147 -318 1631 -703 133 -107 398
-375 504 -512 254 -327 450 -699 561 -1066 234 -767 181 -1582 -148 -2310
-242 -534 -653 -1021 -1142 -1353 -413 -280 -859 -454 -1370 -533 -167 -26
-568 -36 -752 -19 -932 86 -1769 554 -2332 1305 -645 859 -821 2004 -467 3023
279 799 865 1466 1626 1849 377 189 743 292 1205 338 97 10 575 -3 684 -19z"/>
<path d="M2708 5505 c-136 -51 -244 -196 -300 -400 -31 -115 -31 -364 0 -479
49 -179 153 -325 270 -383 80 -39 182 -40 265 -1 129 60 238 226 278 423 30
142 23 341 -15 470 -35 115 -78 195 -143 265 -76 82 -139 113 -238 117 -52 2
-93 -2 -117 -12z m178 -220 c102 -78 167 -302 145 -497 -24 -207 -119 -368
-217 -368 -72 0 -147 87 -191 220 -25 77 -28 98 -28 230 0 126 3 155 24 218
34 104 88 183 142 211 50 25 78 21 125 -14z"/>
<path d="M5988 5505 c-131 -48 -233 -180 -294 -380 -25 -82 -27 -104 -27 -255
-1 -139 3 -178 21 -244 49 -179 153 -325 270 -383 80 -39 182 -40 265 -1 129
60 238 226 278 423 27 131 22 339 -11 455 -54 188 -162 333 -283 378 -67 25
-162 28 -219 7z m181 -224 c41 -32 94 -124 116 -199 55 -186 29 -428 -61 -563
-70 -108 -140 -127 -215 -60 -55 48 -92 120 -120 231 -28 109 -23 298 10 401
31 97 92 186 144 210 50 23 79 18 126 -20z"/>
<path d="M3251 3704 c-100 -21 -168 -59 -246 -138 -145 -146 -188 -336 -120
-523 50 -140 198 -349 340 -481 543 -507 1368 -626 2051 -297 313 151 594 417
732 693 60 119 76 190 69 292 -16 233 -192 422 -427 461 -31 5 -556 9 -1195 8
-936 0 -1152 -3 -1204 -15z m2450 -221 c56 -28 102 -72 137 -132 24 -41 27
-56 27 -136 0 -87 -1 -92 -45 -173 -130 -243 -369 -465 -637 -593 -112 -53
-293 -112 -418 -135 -152 -29 -481 -26 -625 5 -464 99 -844 370 -1037 740 -35
68 -38 80 -38 155 0 64 5 90 23 123 44 83 108 138 192 164 14 4 554 7 1200 6
l1175 -2 46 -22z"/>
</g>
</svg>
