<?xml version="1.0" standalone="no"?>
<!DOCTYPE svg PUBLIC "-//W3C//DTD SVG 20010904//EN"
 "http://www.w3.org/TR/2001/REC-SVG-20010904/DTD/svg10.dtd">
<svg version="1.0" xmlns="http://www.w3.org/2000/svg"
 width="789.000000pt" height="789.000000pt" viewBox="0 0 789.000000 789.000000"
 preserveAspectRatio="xMidYMid meet">

<g transform="translate(0.000000,789.000000) scale(0.100000,-0.100000)"
fill="#000000" stroke="none">
<path d="M3650 7400 c-551 -53 -1097 -236 -1547 -521 -1235 -781 -1853 -2238
-1553 -3661 102 -484 312 -949 603 -1341 590 -793 1440 -1282 2432 -1399 143
-16 587 -16 730 0 990 117 1843 607 2432 1399 230 310 433 717 538 1082 276
963 138 1968 -388 2817 -277 447 -697 859 -1159 1137 -416 251 -852 402 -1358
472 -136 19 -589 28 -730 15z m648 -215 c1368 -143 2514 -1153 2831 -2497 65
-272 85 -452 85 -753 0 -379 -45 -665 -160 -1018 -160 -489 -427 -922 -798
-1292 -513 -512 -1153 -829 -1881 -930 -158 -22 -522 -30 -696 -16 -754 64
-1451 381 -2002 910 -512 493 -863 1177 -961 1876 -48 338 -46 624 5 970 96
649 417 1292 887 1777 525 542 1228 887 1977 972 168 19 532 19 713 1z"/>
<path d="M2757 5801 c-157 -52 -266 -179 -314 -365 -8 -34 -16 -62 -18 -64 -1
-1 -32 11 -69 28 -153 70 -347 89 -500 50 -151 -38 -245 -109 -303 -227 -34
-69 -38 -85 -41 -172 -3 -68 1 -115 13 -160 80 -307 386 -627 806 -841 159
-81 245 -110 345 -117 139 -10 243 36 329 144 84 105 269 502 343 733 91 286
88 528 -10 713 -53 99 -156 200 -254 249 -76 37 -91 41 -176 44 -73 3 -106 0
-151 -15z m241 -217 c28 -14 72 -48 96 -75 179 -199 148 -505 -102 -1024 -147
-307 -179 -345 -285 -345 -107 0 -285 79 -502 224 -312 209 -525 523 -484 715
26 124 131 185 314 183 107 -1 190 -24 316 -88 115 -59 172 -59 232 1 29 30
39 61 56 174 15 96 60 183 115 220 55 37 61 39 132 40 46 1 72 -5 112 -25z"/>
<path d="M4906 5809 c-77 -18 -173 -79 -243 -153 -125 -132 -177 -269 -176
-471 0 -141 17 -227 78 -410 81 -244 244 -588 331 -698 112 -143 286 -183 484
-112 100 36 284 131 395 203 312 203 543 484 601 730 25 105 15 232 -24 316
-77 164 -250 256 -482 256 -112 0 -254 -31 -339 -75 -29 -14 -54 -25 -56 -23
-2 2 -11 32 -20 68 -48 184 -159 313 -313 360 -68 21 -168 25 -236 9z m215
-225 c80 -44 130 -138 148 -278 11 -88 37 -137 85 -160 55 -26 98 -20 194 28
126 63 211 87 312 88 183 2 296 -63 319 -184 38 -207 -181 -518 -519 -737
-276 -178 -469 -240 -560 -177 -46 31 -112 142 -204 341 -242 526 -267 807
-90 1004 90 100 214 130 315 75z"/>
<path d="M2890 3454 c-211 -57 -354 -278 -319 -494 32 -202 264 -495 524 -662
698 -449 1676 -266 2113 396 78 118 109 190 122 279 31 211 -116 428 -325 482
-87 22 -2030 22 -2115 -1z m2109 -220 c88 -44 142 -148 126 -242 -15 -93 -165
-308 -285 -410 -240 -204 -507 -307 -830 -319 -95 -3 -188 -1 -242 6 -398 53
-747 270 -931 580 -25 42 -51 97 -57 123 -27 105 22 211 119 261 l55 27 996 0
996 0 53 -26z"/>
</g>
</svg>
