<?xml version="1.0" standalone="no"?>
<!DOCTYPE svg PUBLIC "-//W3C//DTD SVG 20010904//EN"
 "http://www.w3.org/TR/2001/REC-SVG-20010904/DTD/svg10.dtd">
<svg version="1.0" xmlns="http://www.w3.org/2000/svg"
 width="717.000000pt" height="721.000000pt" viewBox="0 0 717.000000 721.000000"
 preserveAspectRatio="xMidYMid meet">

<g transform="translate(0.000000,721.000000) scale(0.100000,-0.100000)"
fill="#000000" stroke="none">
<path d="M3325 7149 c-827 -60 -1583 -399 -2174 -974 -303 -295 -511 -577
-692 -937 -181 -361 -288 -710 -345 -1133 -26 -185 -26 -666 0 -850 107 -776
425 -1439 950 -1983 577 -597 1320 -960 2143 -1047 179 -19 538 -19 717 0 681
72 1312 336 1845 772 130 107 362 336 462 458 683 828 947 1877 738 2925 -104
521 -350 1041 -695 1475 -113 141 -397 426 -539 539 -522 416 -1168 680 -1821
745 -155 16 -444 21 -589 10z m645 -224 c606 -82 1134 -304 1620 -681 137
-106 405 -371 512 -504 352 -443 574 -924 677 -1470 38 -204 46 -307 45 -605
0 -243 -4 -313 -22 -432 -37 -248 -96 -479 -179 -703 -47 -129 -178 -397 -257
-528 -473 -786 -1256 -1341 -2146 -1522 -646 -131 -1328 -64 -1925 190 -1000
424 -1732 1325 -1939 2386 -45 232 -59 409 -53 699 5 277 20 407 72 640 229
1021 946 1882 1910 2293 333 142 683 226 1060 256 107 8 515 -4 625 -19z"/>
<path d="M1815 5533 c-138 -56 -249 -208 -295 -407 -51 -219 -30 -439 60 -623
50 -102 120 -180 202 -223 55 -30 72 -34 138 -35 65 0 84 4 142 33 333 163
398 850 111 1154 -79 83 -153 118 -248 117 -40 0 -87 -7 -110 -16z m148 -197
c92 -38 169 -198 183 -382 20 -245 -95 -504 -222 -504 -107 0 -209 187 -221
405 -12 217 69 430 182 481 38 17 39 17 78 0z"/>
<path d="M5097 5535 c-357 -132 -441 -874 -133 -1180 82 -82 139 -108 236
-109 66 -1 84 3 142 32 116 57 216 198 262 367 75 281 10 617 -153 788 -77 82
-152 117 -246 116 -38 0 -87 -7 -108 -14z m173 -214 c115 -83 184 -330 149
-540 -30 -187 -123 -331 -213 -331 -62 0 -125 61 -171 163 -93 212 -60 539 68
676 59 62 112 72 167 32z"/>
<path d="M1871 3789 c-73 -14 -141 -39 -226 -82 -112 -57 -244 -190 -302 -302
-71 -139 -88 -209 -88 -370 0 -119 4 -151 23 -215 82 -260 273 -445 539 -522
l78 -23 1670 0 1670 0 79 23 c294 85 508 322 556 614 57 354 -138 700 -470
835 -137 55 -61 53 -1840 52 -905 -1 -1665 -5 -1689 -10z m199 -424 l0 -225
-301 0 -302 0 6 38 c12 71 76 182 146 251 109 108 227 159 374 160 l77 1 0
-225z m730 0 l0 -225 -260 0 -260 0 0 225 0 225 260 0 260 0 0 -225z m730 0
l0 -225 -260 0 -260 0 0 225 0 225 260 0 260 0 0 -225z m720 0 l0 -225 -260 0
-260 0 0 225 0 225 260 0 260 0 0 -225z m730 0 l0 -225 -260 0 -260 0 0 225 0
225 260 0 260 0 0 -225z m320 198 c105 -34 199 -105 267 -200 42 -59 93 -173
93 -208 0 -13 -36 -15 -235 -15 l-235 0 0 226 0 226 33 -7 c17 -4 52 -14 77
-22z m-3230 -858 l0 -225 -62 0 c-169 1 -334 82 -435 215 -50 65 -88 142 -98
199 l-7 36 301 0 301 0 0 -225z m730 0 l0 -225 -260 0 -260 0 0 225 0 225 260
0 260 0 0 -225z m730 0 l0 -225 -260 0 -260 0 0 225 0 225 260 0 260 0 0 -225z
m720 0 l0 -225 -260 0 -260 0 0 225 0 225 260 0 260 0 0 -225z m730 0 l0 -225
-260 0 -260 0 0 225 0 225 260 0 260 0 0 -225z m676 193 c-21 -108 -132 -261
-237 -329 -57 -36 -167 -79 -204 -79 l-25 0 0 220 0 220 236 0 237 0 -7 -32z"/>
</g>
</svg>
