<?xml version="1.0" encoding="UTF-8"?>
<!DOCTYPE svg PUBLIC "-//W3C//DTD SVG 1.1//EN" "http://www.w3.org/Graphics/SVG/1.1/DTD/svg11.dtd">
<svg xmlns="http://www.w3.org/2000/svg" version="1.1" width="450px" height="350px" style="shape-rendering:geometricPrecision; text-rendering:geometricPrecision; image-rendering:optimizeQuality; fill-rule:evenodd; clip-rule:evenodd" xmlns:xlink="http://www.w3.org/1999/xlink">
<g><path style="opacity:0.985" fill="#000000" d="M 231.5,79.5 C 233.371,79.8588 234.871,80.8588 236,82.5C 240.333,88.5 244.667,94.5 249,100.5C 250.719,102.557 252.719,104.224 255,105.5C 256.395,105.22 257.562,104.553 258.5,103.5C 263.472,96.0281 268.639,88.6948 274,81.5C 274.804,80.1955 275.971,79.5288 277.5,79.5C 296.903,82.4406 312.736,91.4406 325,106.5C 329.564,114.38 331.731,122.88 331.5,132C 330.647,145.82 330.314,159.653 330.5,173.5C 333.652,172.959 336.152,173.959 338,176.5C 342.098,191.603 338.598,204.77 327.5,216C 325.043,217.562 322.376,218.562 319.5,219C 313.576,224.928 307.076,230.094 300,234.5C 300.854,229.032 298.687,226.532 293.5,227C 293,227.5 292.5,228 292,228.5C 291.762,232.222 291.262,235.889 290.5,239.5C 287.956,241.019 285.289,242.352 282.5,243.5C 281.741,240.843 281.074,238.177 280.5,235.5C 277.546,233.853 275.38,234.519 274,237.5C 273.502,240.482 273.335,243.482 273.5,246.5C 268.5,247.167 263.5,247.833 258.5,248.5C 258.665,244.818 258.499,241.152 258,237.5C 255.321,234.828 252.988,235.162 251,238.5C 250.502,241.817 250.335,245.15 250.5,248.5C 245.097,247.871 239.764,246.871 234.5,245.5C 233.679,242.553 233.179,239.553 233,236.5C 230.667,233.833 228.333,233.833 226,236.5C 225.808,238.577 225.308,240.577 224.5,242.5C 222.615,241.391 220.615,240.557 218.5,240C 216.8,236.037 215.466,231.87 214.5,227.5C 209.827,226.326 207.661,228.326 208,233.5C 201.875,229.044 196.042,224.211 190.5,219C 182.567,217.075 177.067,212.242 174,204.5C 171.872,198.653 170.372,192.653 169.5,186.5C 169.691,182.926 170.691,179.593 172.5,176.5C 174.851,174.771 177.518,174.104 180.5,174.5C 179.54,156.175 179.373,137.842 180,119.5C 185.38,102.453 196.546,90.9528 213.5,85C 219.531,82.8324 225.531,80.999 231.5,79.5 Z M 203.5,157.5 C 209.861,157.603 216.194,158.103 222.5,159C 237.944,160.954 245.277,169.788 244.5,185.5C 244.675,193.156 241.008,197.656 233.5,199C 213.341,204.177 200.174,197.011 194,177.5C 188.709,166.472 191.875,159.805 203.5,157.5 Z M 297.5,157.5 C 304.174,156.965 310.507,158.132 316.5,161C 319.194,163.653 320.027,166.82 319,170.5C 313.023,198.074 296.856,206.574 270.5,196C 268.051,192.798 266.718,189.132 266.5,185C 265.975,175.201 269.642,167.534 277.5,162C 284.145,159.774 290.811,158.274 297.5,157.5 Z M 251.5,205.5 C 254.247,205.187 256.914,205.52 259.5,206.5C 260.959,208.583 262.292,210.75 263.5,213C 260.963,215.872 258.13,218.372 255,220.5C 252.128,217.963 249.628,215.13 247.5,212C 249.232,210.028 250.565,207.861 251.5,205.5 Z"/></g>
<g><path style="opacity:0.925" fill="#000000" d="M 313.5,233.5 C 314.043,233.56 314.376,233.893 314.5,234.5C 299.474,267.362 274.141,280.862 238.5,275C 218.9,267.567 204.567,254.4 195.5,235.5C 195.833,235.167 196.167,234.833 196.5,234.5C 200.527,237.694 204.694,240.694 209,243.5C 210.407,248.397 212.573,252.897 215.5,257C 216.899,257.595 218.232,257.428 219.5,256.5C 220.769,254.305 220.769,252.139 219.5,250C 221.553,249.675 223.553,250.009 225.5,251C 227.891,254.474 229.724,258.308 231,262.5C 234.123,266.53 236.623,266.197 238.5,261.5C 237.533,259.238 236.866,256.905 236.5,254.5C 241.152,254.998 245.819,255.331 250.5,255.5C 250.335,258.85 250.502,262.183 251,265.5C 252.903,268.955 255.237,269.288 258,266.5C 258.499,262.848 258.665,259.182 258.5,255.5C 262.893,255.457 267.226,255.291 271.5,255C 270.692,257.088 269.692,259.088 268.5,261C 270.26,264.994 272.76,265.827 276,263.5C 277.654,259.698 279.154,255.864 280.5,252C 282.821,251.163 285.155,250.83 287.5,251C 285.892,255.891 287.559,257.724 292.5,256.5C 295.144,252.879 296.977,248.879 298,244.5C 303.625,241.359 308.792,237.692 313.5,233.5 Z"/></g>
<g><path style="opacity:0.947" fill="#000000" d="M 293.5,271.5 C 295.62,273.972 297.286,276.806 298.5,280C 283.99,289.848 269.49,299.682 255,309.5C 240.07,299.731 225.57,289.398 211.5,278.5C 212.3,275.867 213.8,273.867 216,272.5C 242.188,290.07 268.021,289.736 293.5,271.5 Z"/></g>
<g><path style="opacity:0.987" fill="#000000" d="M 202.5,275.5 C 203.525,275.897 203.692,276.563 203,277.5C 185.759,302.405 168.926,327.571 152.5,353C 159.65,360.648 167.317,367.815 175.5,374.5C 178.487,391.726 180.82,409.059 182.5,426.5C 140.222,422.412 99.0549,413.412 59,399.5C 58.6905,398.234 58.1905,397.067 57.5,396C 64.6376,377.889 72.4709,360.055 81,342.5C 94.018,322.155 111.851,307.655 134.5,299C 157.452,291.629 180.118,283.795 202.5,275.5 Z"/></g>
<g><path style="opacity:0.987" fill="#000000" d="M 305.5,278.5 C 305.735,277.903 306.235,277.57 307,277.5C 330.822,284.996 354.656,292.496 378.5,300C 399.866,309.097 417.032,323.263 430,342.5C 438.255,360.507 446.088,378.674 453.5,397C 452.874,397.75 452.374,398.584 452,399.5C 412.707,413.86 372.207,423.193 330.5,427.5C 328.833,427.167 327.167,426.833 325.5,426.5C 328.108,409.194 330.608,391.861 333,374.5C 341.485,368.014 349.318,360.847 356.5,353C 339.637,327.988 322.637,303.155 305.5,278.5 Z"/></g>
<g><path style="opacity:0.956" fill="#000000" d="M 212.5,289.5 C 224.522,297.511 236.189,306.011 247.5,315C 239.73,322.097 231.897,329.264 224,336.5C 219.475,321.054 215.642,305.387 212.5,289.5 Z"/></g>
<g><path style="opacity:0.949" fill="#000000" d="M 295.5,290.5 C 296.124,290.917 296.457,291.584 296.5,292.5C 293.295,306.988 289.628,321.321 285.5,335.5C 277.208,329.21 269.208,322.543 261.5,315.5C 262.313,314.186 263.313,313.019 264.5,312C 275.248,305.304 285.582,298.137 295.5,290.5 Z"/></g>
<g><path style="opacity:0.969" fill="#000000" d="M 200.5,294.5 C 201.219,323.411 203.052,352.411 206,381.5C 207.816,397.566 210.649,413.399 214.5,429C 206.503,429.168 198.503,429.001 190.5,428.5C 188.454,409.631 186.121,390.798 183.5,372C 176.187,365.356 168.854,358.69 161.5,352C 174.721,332.952 187.721,313.786 200.5,294.5 Z"/></g>
<g><path style="opacity:0.965" fill="#000000" d="M 307.5,296.5 C 310.098,298.304 312.265,300.638 314,303.5C 324.848,319.677 335.682,335.844 346.5,352C 339.675,359.158 332.508,365.991 325,372.5C 322.99,391.252 320.49,409.918 317.5,428.5C 309.226,429.841 300.893,430.341 292.5,430C 299.869,415.029 304.369,399.196 306,382.5C 308.632,353.844 309.132,325.177 307.5,296.5 Z"/></g>
<g><path style="opacity:0.959" fill="#000000" d="M 299.5,311.5 C 300.29,312.609 300.79,313.942 301,315.5C 302.475,346.873 299.808,377.873 293,408.5C 290.333,415.833 287.667,423.167 285,430.5C 282.599,431.602 280.099,431.769 277.5,431C 273.936,402.259 271.103,373.425 269,344.5C 270.247,341.671 271.747,339.005 273.5,336.5C 277.978,339.81 282.311,343.31 286.5,347C 288.464,347.624 290.131,347.124 291.5,345.5C 294.551,334.244 297.217,322.911 299.5,311.5 Z"/></g>
<g><path style="opacity:0.958" fill="#000000" d="M 209.5,314.5 C 212.463,324.672 215.296,335.005 218,345.5C 219.133,347.211 220.633,347.711 222.5,347C 227.021,342.978 231.688,339.144 236.5,335.5C 239.03,339.226 241.03,343.226 242.5,347.5C 238.792,375.124 235.458,402.791 232.5,430.5C 228.833,430.5 225.167,430.5 221.5,430.5C 213.913,392.212 209.913,353.546 209.5,314.5 Z"/></g>
<g><path style="opacity:0.938" fill="#000000" d="M 253.5,320.5 C 254.552,320.351 255.552,320.517 256.5,321C 259.977,324.567 263.644,327.9 267.5,331C 265.706,334.088 264.039,337.254 262.5,340.5C 257.833,341.833 253.167,341.833 248.5,340.5C 246.374,337.081 244.374,333.581 242.5,330C 246.359,326.968 250.026,323.802 253.5,320.5 Z"/></g>
<g><path style="opacity:0.963" fill="#000000" d="M 249.5,348.5 C 253.673,347.956 257.506,348.623 261,350.5C 263.871,377.504 266.704,404.504 269.5,431.5C 259.5,431.5 249.5,431.5 239.5,431.5C 243.243,403.888 246.576,376.222 249.5,348.5 Z"/></g>
</svg>
